<mxfile host="app.diagrams.net" agent="Mozilla/5.0 (Windows NT 10.0; Win64; x64) AppleWebKit/537.36 (KHTML, like Gecko) Chrome/128.0.0.0 Safari/537.36 OPR/114.0.0.0" version="25.0.3">
  <diagram name="PÃ¡gina-1" id="d3yY4NeekswbrGy4xm-G">
    <mxGraphModel dx="1393" dy="1932" grid="1" gridSize="10" guides="1" tooltips="1" connect="1" arrows="1" fold="1" page="1" pageScale="1" pageWidth="827" pageHeight="1169" math="0" shadow="0">
      <root>
        <mxCell id="0" />
        <mxCell id="1" parent="0" />
        <mxCell id="sdVxzxpODBjFofQ1EB6O-1" value="INICIO" style="strokeWidth=2;html=1;shape=mxgraph.flowchart.start_1;whiteSpace=wrap;" vertex="1" parent="1">
          <mxGeometry x="340" width="100" height="60" as="geometry" />
        </mxCell>
        <mxCell id="sdVxzxpODBjFofQ1EB6O-2" value="FIM" style="strokeWidth=2;html=1;shape=mxgraph.flowchart.start_1;whiteSpace=wrap;" vertex="1" parent="1">
          <mxGeometry x="340" y="920" width="100" height="60" as="geometry" />
        </mxCell>
        <mxCell id="sdVxzxpODBjFofQ1EB6O-3" value="NUM1" style="html=1;strokeWidth=2;shape=manualInput;whiteSpace=wrap;rounded=1;size=26;arcSize=11;" vertex="1" parent="1">
          <mxGeometry x="340" y="80" width="100" height="60" as="geometry" />
        </mxCell>
        <mxCell id="sdVxzxpODBjFofQ1EB6O-4" value="NUM2" style="html=1;strokeWidth=2;shape=manualInput;whiteSpace=wrap;rounded=1;size=26;arcSize=11;" vertex="1" parent="1">
          <mxGeometry x="340" y="150" width="100" height="60" as="geometry" />
        </mxCell>
        <mxCell id="sdVxzxpODBjFofQ1EB6O-5" value="NUM3" style="html=1;strokeWidth=2;shape=manualInput;whiteSpace=wrap;rounded=1;size=26;arcSize=11;" vertex="1" parent="1">
          <mxGeometry x="340" y="230" width="100" height="60" as="geometry" />
        </mxCell>
        <mxCell id="sdVxzxpODBjFofQ1EB6O-23" style="edgeStyle=orthogonalEdgeStyle;rounded=0;orthogonalLoop=1;jettySize=auto;html=1;entryX=0.5;entryY=0;entryDx=0;entryDy=0;" edge="1" parent="1" source="sdVxzxpODBjFofQ1EB6O-6" target="sdVxzxpODBjFofQ1EB6O-7">
          <mxGeometry relative="1" as="geometry" />
        </mxCell>
        <mxCell id="sdVxzxpODBjFofQ1EB6O-6" value="NUM4" style="html=1;strokeWidth=2;shape=manualInput;whiteSpace=wrap;rounded=1;size=26;arcSize=11;" vertex="1" parent="1">
          <mxGeometry x="340" y="300" width="100" height="60" as="geometry" />
        </mxCell>
        <mxCell id="sdVxzxpODBjFofQ1EB6O-24" style="edgeStyle=orthogonalEdgeStyle;rounded=0;orthogonalLoop=1;jettySize=auto;html=1;entryX=0.5;entryY=0;entryDx=0;entryDy=0;" edge="1" parent="1" source="sdVxzxpODBjFofQ1EB6O-7" target="sdVxzxpODBjFofQ1EB6O-18">
          <mxGeometry relative="1" as="geometry" />
        </mxCell>
        <mxCell id="sdVxzxpODBjFofQ1EB6O-7" value="NUM1 = NUM1 * NUM1" style="rounded=1;whiteSpace=wrap;html=1;absoluteArcSize=1;arcSize=14;strokeWidth=2;" vertex="1" parent="1">
          <mxGeometry x="320" y="390" width="140" height="50" as="geometry" />
        </mxCell>
        <mxCell id="sdVxzxpODBjFofQ1EB6O-8" value="RESULTADO" style="strokeWidth=2;html=1;shape=mxgraph.flowchart.display;whiteSpace=wrap;" vertex="1" parent="1">
          <mxGeometry x="340" y="830" width="100" height="60" as="geometry" />
        </mxCell>
        <mxCell id="sdVxzxpODBjFofQ1EB6O-9" style="edgeStyle=orthogonalEdgeStyle;rounded=0;orthogonalLoop=1;jettySize=auto;html=1;entryX=0.5;entryY=0;entryDx=0;entryDy=0;entryPerimeter=0;" edge="1" parent="1" source="sdVxzxpODBjFofQ1EB6O-8" target="sdVxzxpODBjFofQ1EB6O-2">
          <mxGeometry relative="1" as="geometry" />
        </mxCell>
        <mxCell id="sdVxzxpODBjFofQ1EB6O-11" style="edgeStyle=orthogonalEdgeStyle;rounded=0;orthogonalLoop=1;jettySize=auto;html=1;entryX=0.5;entryY=0.2;entryDx=0;entryDy=0;entryPerimeter=0;" edge="1" parent="1" source="sdVxzxpODBjFofQ1EB6O-1" target="sdVxzxpODBjFofQ1EB6O-3">
          <mxGeometry relative="1" as="geometry" />
        </mxCell>
        <mxCell id="sdVxzxpODBjFofQ1EB6O-12" style="edgeStyle=orthogonalEdgeStyle;rounded=0;orthogonalLoop=1;jettySize=auto;html=1;entryX=0.5;entryY=0.167;entryDx=0;entryDy=0;entryPerimeter=0;" edge="1" parent="1" source="sdVxzxpODBjFofQ1EB6O-3" target="sdVxzxpODBjFofQ1EB6O-4">
          <mxGeometry relative="1" as="geometry" />
        </mxCell>
        <mxCell id="sdVxzxpODBjFofQ1EB6O-13" style="edgeStyle=orthogonalEdgeStyle;rounded=0;orthogonalLoop=1;jettySize=auto;html=1;entryX=0.5;entryY=0.167;entryDx=0;entryDy=0;entryPerimeter=0;" edge="1" parent="1" source="sdVxzxpODBjFofQ1EB6O-4" target="sdVxzxpODBjFofQ1EB6O-5">
          <mxGeometry relative="1" as="geometry" />
        </mxCell>
        <mxCell id="sdVxzxpODBjFofQ1EB6O-17" style="edgeStyle=orthogonalEdgeStyle;rounded=0;orthogonalLoop=1;jettySize=auto;html=1;entryX=0.5;entryY=0.167;entryDx=0;entryDy=0;entryPerimeter=0;" edge="1" parent="1" source="sdVxzxpODBjFofQ1EB6O-5" target="sdVxzxpODBjFofQ1EB6O-6">
          <mxGeometry relative="1" as="geometry" />
        </mxCell>
        <mxCell id="sdVxzxpODBjFofQ1EB6O-25" style="edgeStyle=orthogonalEdgeStyle;rounded=0;orthogonalLoop=1;jettySize=auto;html=1;entryX=0.5;entryY=0;entryDx=0;entryDy=0;" edge="1" parent="1" source="sdVxzxpODBjFofQ1EB6O-18" target="sdVxzxpODBjFofQ1EB6O-19">
          <mxGeometry relative="1" as="geometry" />
        </mxCell>
        <mxCell id="sdVxzxpODBjFofQ1EB6O-18" value="NUM2 = NUM2 * NUM2" style="rounded=1;whiteSpace=wrap;html=1;absoluteArcSize=1;arcSize=14;strokeWidth=2;" vertex="1" parent="1">
          <mxGeometry x="320" y="470" width="140" height="50" as="geometry" />
        </mxCell>
        <mxCell id="sdVxzxpODBjFofQ1EB6O-26" style="edgeStyle=orthogonalEdgeStyle;rounded=0;orthogonalLoop=1;jettySize=auto;html=1;entryX=0.5;entryY=0;entryDx=0;entryDy=0;" edge="1" parent="1" source="sdVxzxpODBjFofQ1EB6O-19" target="sdVxzxpODBjFofQ1EB6O-20">
          <mxGeometry relative="1" as="geometry" />
        </mxCell>
        <mxCell id="sdVxzxpODBjFofQ1EB6O-19" value="NUM3 = NUM3 * NUM3" style="rounded=1;whiteSpace=wrap;html=1;absoluteArcSize=1;arcSize=14;strokeWidth=2;" vertex="1" parent="1">
          <mxGeometry x="320" y="550" width="140" height="50" as="geometry" />
        </mxCell>
        <mxCell id="sdVxzxpODBjFofQ1EB6O-27" style="edgeStyle=orthogonalEdgeStyle;rounded=0;orthogonalLoop=1;jettySize=auto;html=1;entryX=0.5;entryY=0;entryDx=0;entryDy=0;" edge="1" parent="1" source="sdVxzxpODBjFofQ1EB6O-20" target="sdVxzxpODBjFofQ1EB6O-21">
          <mxGeometry relative="1" as="geometry" />
        </mxCell>
        <mxCell id="sdVxzxpODBjFofQ1EB6O-20" value="NUM4 = NUM4 * NUM4" style="rounded=1;whiteSpace=wrap;html=1;absoluteArcSize=1;arcSize=14;strokeWidth=2;" vertex="1" parent="1">
          <mxGeometry x="320" y="640" width="140" height="50" as="geometry" />
        </mxCell>
        <mxCell id="sdVxzxpODBjFofQ1EB6O-21" value="RESULTADO = NUM1 + NUM2 + NUM3 + NUM4" style="rounded=1;whiteSpace=wrap;html=1;absoluteArcSize=1;arcSize=14;strokeWidth=2;" vertex="1" parent="1">
          <mxGeometry x="250" y="730" width="280" height="50" as="geometry" />
        </mxCell>
        <mxCell id="sdVxzxpODBjFofQ1EB6O-22" style="edgeStyle=orthogonalEdgeStyle;rounded=0;orthogonalLoop=1;jettySize=auto;html=1;entryX=0.5;entryY=0;entryDx=0;entryDy=0;entryPerimeter=0;" edge="1" parent="1" source="sdVxzxpODBjFofQ1EB6O-21" target="sdVxzxpODBjFofQ1EB6O-8">
          <mxGeometry relative="1" as="geometry" />
        </mxCell>
      </root>
    </mxGraphModel>
  </diagram>
</mxfile>
